<?xml version="1.0" encoding="UTF-8" standalone="no"?>
<!-- Created with Inkscape (http://www.inkscape.org/) -->

<svg
   width="306"
   height="306"
   viewBox="0 0 80.962498 80.9625"
   version="1.1"
   id="svg1"
   xml:space="preserve"
   inkscape:version="1.4 (86a8ad7, 2024-10-11)"
   sodipodi:docname="UGA.svg"
   xmlns:inkscape="http://www.inkscape.org/namespaces/inkscape"
   xmlns:sodipodi="http://sodipodi.sourceforge.net/DTD/sodipodi-0.dtd"
   xmlns="http://www.w3.org/2000/svg"
   xmlns:svg="http://www.w3.org/2000/svg"><sodipodi:namedview
     id="namedview1"
     pagecolor="#ffffff"
     bordercolor="#cccccc"
     borderopacity="1"
     inkscape:showpageshadow="0"
     inkscape:pageopacity="1"
     inkscape:pagecheckerboard="0"
     inkscape:deskcolor="#d1d1d1"
     inkscape:document-units="mm"
     inkscape:zoom="2.1644332"
     inkscape:cx="205.59655"
     inkscape:cy="170.71444"
     inkscape:window-width="1920"
     inkscape:window-height="1017"
     inkscape:window-x="1592"
     inkscape:window-y="-8"
     inkscape:window-maximized="1"
     inkscape:current-layer="layer1" /><defs
     id="defs1" /><g
     inkscape:label="Layer 1"
     inkscape:groupmode="layer"
     id="layer1"><path
       style="fill:#ffffff"
       d="m 44.004275,78.588013 c -1.391076,-0.581194 -1.22865,-2.622489 0.272519,-3.424908 0.717726,-0.383646 0.911253,-0.919445 0.437789,-1.212062 -0.145521,-0.08994 -0.264584,-0.614292 -0.264584,-1.165233 0,-1.238629 0.632907,-1.870767 2.065414,-2.062907 0.83437,-0.111912 1.162346,-0.02639 1.608036,0.419298 0.772124,0.772124 0.701025,1.517781 -0.233866,2.452672 -0.917906,0.917906 -0.922759,0.942307 -0.397006,1.996205 0.463527,0.929161 0.172971,2.14316 -0.63348,2.646797 -0.717416,0.448033 -2.188629,0.628475 -2.854822,0.350138 z m 2.288499,-0.783117 c 0.428825,-0.801269 0.323473,-1.716479 -0.271047,-2.354621 -0.645343,-0.692695 -0.967657,-0.552502 -1.464695,0.637079 -0.495463,1.185809 -0.119521,2.229314 0.803151,2.229314 0.380446,0 0.774398,-0.216187 0.932591,-0.511772 z m 0.811916,-4.267279 c 0.419522,-0.783883 0.400602,-2.110692 -0.03402,-2.385851 -0.516331,-0.326887 -0.670506,-0.303713 -1.146562,0.172342 -0.541889,0.54189 -0.530984,1.664212 0.02211,2.275372 0.563283,0.622421 0.798994,0.609834 1.158475,-0.06186 z m 9.25156,4.975013 c -0.734014,-0.381602 -0.894375,-1.334484 -0.245608,-1.459425 0.237372,-0.04571 0.547217,0.208232 0.721932,0.591689 0.652325,1.431697 2.434092,0.46479 2.434092,-1.320903 0,-1.29768 -0.538345,-1.822174 -1.680118,-1.636889 -0.531143,0.08619 -0.965715,0.08774 -0.965715,0.0034 0,-0.0843 0.243167,-0.969786 0.54037,-1.96774 l 0.540371,-1.814463 h 1.029905 c 0.566448,0 1.335313,-0.116116 1.708588,-0.258035 0.692349,-0.263231 0.807903,-0.121986 0.518084,0.63327 -0.114877,0.299365 -0.514107,0.418515 -1.402292,0.418515 -0.682931,0 -1.384568,0.142875 -1.559193,0.3175 -0.35625,0.35625 -0.442636,1.907734 -0.09423,1.692409 0.122797,-0.07589 0.644886,-0.02157 1.160197,0.120712 1.70238,0.47005 1.983795,2.642603 0.521909,4.029194 -0.874644,0.829596 -2.32277,1.121496 -3.22829,0.65073 z m -25.664584,-0.01845 c 0,-0.04789 1.071562,-1.503571 2.38125,-3.234844 1.309687,-1.731274 2.38125,-3.239903 2.38125,-3.352509 0,-0.398995 -2.780145,-0.213515 -3.409761,0.227486 -0.601198,0.421095 -0.612099,0.415985 -0.423365,-0.198438 0.106548,-0.346864 0.288073,-0.749725 0.403389,-0.895246 0.252724,-0.318919 4.305571,-0.331814 4.474992,-0.01424 0.167641,0.314239 -5.073708,7.535793 -5.477026,7.546272 -0.181901,0.0047 -0.330729,-0.03059 -0.330729,-0.07848 z M 19.049999,76.252918 c 0,-0.116417 0.117424,-0.329091 0.260943,-0.47261 0.487926,-0.487926 1.349011,-4.393822 1.048483,-4.755937 -0.351555,-0.423598 -0.06526,-0.577699 0.939532,-0.505717 1.283147,0.09192 1.313531,0.109181 0.823283,0.467659 -0.648043,0.473861 -1.61242,4.608749 -1.192815,5.114343 0.248015,0.29884 0.106957,0.363929 -0.788696,0.363929 -0.599902,0 -1.09073,-0.09525 -1.09073,-0.211667 z m 41.668146,-8.525617 c -0.11186,-0.180994 -7.091468,-0.264505 -21.074876,-0.252162 l -20.907625,0.01846 -0.967302,-0.724264 C 16.183066,65.582361 13.182975,62.446101 11.60381,60.325001 -0.19847529,44.47243 3.0727089,21.99405 18.907197,10.138803 35.691841,-2.4278243 59.61972,2.2109506 70.594958,20.159244 c 2.230384,3.647446 3.791583,7.647585 4.730239,12.119923 0.691448,3.294488 0.621018,10.317179 -0.138545,13.814613 -1.338182,6.161707 -4.29075,12.009002 -8.3884,16.612471 -1.838207,2.065118 -3.695014,3.819803 -4.687315,4.429519 -0.400182,0.24589 -0.727604,0.540465 -0.727604,0.654611 0,0.299678 -0.468446,0.255255 -0.665188,-0.06308 z M 19.579166,66.438725 c 0,-0.275472 0.178593,-0.569392 0.396875,-0.653154 0.232003,-0.08903 0.396875,-0.485488 0.396875,-0.954349 0,-0.44113 0.119062,-0.802054 0.264583,-0.802054 0.145521,0 0.264583,-0.308803 0.264583,-0.686229 0,-0.463713 0.171587,-0.731099 0.529167,-0.824608 0.291042,-0.07611 0.529167,-0.346563 0.529167,-0.601007 0,-0.254445 0.244271,-0.773167 0.542825,-1.152717 0.535894,-0.68128 0.541629,-0.88864 0.449161,-16.241411 C 22.856407,28.5849 22.792629,27.592928 21.800065,26.600364 21.547577,26.347876 21.46117,25.987125 21.5706,25.642343 c 0.12128,-0.38212 0.0034,-0.713357 -0.381319,-1.07181 -0.83126,-0.774436 -0.330271,-1.551783 1.000104,-1.551783 0.982739,0 1.025317,-0.0418 2.001381,-1.964798 C 28.547,12.47149 38.067269,8.8995356 47.077419,12.467001 c 3.504637,1.387621 7.297008,4.959167 8.944776,8.423935 0.978372,2.057227 1.013696,2.094705 2.051564,2.176687 1.209968,0.09558 1.532811,0.724496 0.792072,1.543004 -0.24597,0.271794 -0.39034,0.649888 -0.320821,0.840209 0.06952,0.190322 -0.125033,0.762758 -0.432337,1.272081 -0.307304,0.509323 -0.641286,1.640417 -0.742183,2.513542 -0.100897,0.873125 -0.19211,8.245845 -0.202697,16.383823 -0.01872,14.389966 -0.0049,14.809651 0.501616,15.281582 0.286474,0.266892 0.453292,0.661345 0.370705,0.876562 -0.09799,0.255358 0.08899,0.482227 0.538198,0.653016 0.479448,0.182286 0.688354,0.455852 0.688354,0.901411 0,0.351835 0.178594,0.708233 0.396875,0.791995 0.232004,0.08903 0.396875,0.485488 0.396875,0.954349 0,0.44113 0.105176,0.802054 0.233725,0.802054 0.128548,0 0.295996,0.238125 0.372105,0.529167 0.19555,0.747785 0.426239,0.675306 1.894782,-0.595313 C 68.824718,60.395611 72.7877,53.659133 74.507237,45.508334 75.153873,42.443202 75.160158,34.825277 74.51826,32.146876 73.328824,27.183801 71.757599,23.321478 69.486936,19.779068 64.855205,12.553211 57.307692,7.1033063 48.925212,4.9318668 39.480752,2.4853267 29.854053,4.021123 21.425443,9.3190449 18.68173,11.043644 17.953097,11.644989 15.100575,14.538989 10.65721,19.046965 7.4003572,25.123346 6.0466278,31.431134 5.2594032,35.099257 5.094715,40.711039 5.6728286,44.16841 c 1.1940428,7.140894 3.9118564,12.86964 8.6871994,18.311321 1.384315,1.577478 4.623885,4.459854 5.012535,4.459854 0.113632,0 0.206603,-0.225387 0.206603,-0.50086 z m 17.715383,-4.658516 c 0.0792,-0.291041 0.354342,-0.838727 0.611436,-1.21708 0.435892,-0.641479 0.461043,-1.677318 0.372614,-15.345833 -0.05426,-8.386974 -0.211906,-15.35098 -0.368487,-16.2779 C 37.755647,28.025001 37.370013,26.959033 37.02472,26.492 l -0.611735,-0.827416 -3.985139,0.0018 -3.985139,0.0018 -0.593111,0.871248 c -0.326212,0.479186 -0.66309,1.460639 -0.748619,2.181005 -0.08553,0.720366 -0.268627,1.547881 -0.406884,1.838923 -0.152213,0.320418 -0.222204,6.304289 -0.177423,15.168835 0.06864,13.587138 0.107243,14.664003 0.536975,14.978127 0.254661,0.186152 0.463021,0.573379 0.463021,0.860505 0,0.287126 0.08203,0.604078 0.18229,0.704337 0.10026,0.10026 2.267885,0.14987 4.816946,0.110244 4.378635,-0.06807 4.642609,-0.101279 4.778647,-0.601215 z m 15.09295,0.04101 c 0,-0.341249 0.238125,-0.835952 0.529167,-1.099341 0.516976,-0.467857 0.52916,-0.814703 0.528855,-15.056111 C 53.44519,30.190839 53.299964,27.982104 52.184487,26.486855 51.673141,25.801416 51.642949,25.79642 47.596855,25.727657 l -4.072897,-0.06922 -0.595313,1.047679 c -0.373568,0.657436 -0.595312,1.490464 -0.595312,2.236417 0,0.653805 -0.119063,1.262321 -0.264584,1.352258 -0.171318,0.105881 -0.264583,5.413037 -0.264583,15.055858 0,14.556318 0.01194,14.903142 0.529167,15.371226 0.291041,0.263389 0.529166,0.758092 0.529166,1.099341 v 0.620451 h 4.7625 4.7625 z m 2.381251,-38.96488 c 0,-0.628557 -2.20285,-3.923888 -3.428784,-5.129253 -2.306295,-2.267603 -4.377534,-3.421589 -7.637935,-4.255459 -2.525529,-0.645922 -4.377403,-0.63834 -7.162524,0.02932 -3.045655,0.73012 -5.100703,1.877137 -7.320306,4.0858 -1.692555,1.684214 -3.554619,4.373352 -3.554619,5.133479 0,0.218023 3.924133,0.298522 14.552084,0.298522 8.003646,0 14.552084,-0.07309 14.552084,-0.162413 z"
       id="path1" /></g></svg>
