<?xml version="1.0" encoding="UTF-8" standalone="no"?>
<!-- Created with Inkscape (http://www.inkscape.org/) -->

<svg
   width="132.29167mm"
   height="132.29167mm"
   viewBox="0 0 132.29167 132.29167"
   version="1.1"
   id="svg1"
   xml:space="preserve"
   inkscape:version="1.4 (86a8ad7, 2024-10-11)"
   sodipodi:docname="SWH_logo.svg"
   xmlns:inkscape="http://www.inkscape.org/namespaces/inkscape"
   xmlns:sodipodi="http://sodipodi.sourceforge.net/DTD/sodipodi-0.dtd"
   xmlns="http://www.w3.org/2000/svg"
   xmlns:svg="http://www.w3.org/2000/svg"><sodipodi:namedview
     id="namedview1"
     pagecolor="#ffffff"
     bordercolor="#cccccc"
     borderopacity="1"
     inkscape:showpageshadow="0"
     inkscape:pageopacity="1"
     inkscape:pagecheckerboard="0"
     inkscape:deskcolor="#d1d1d1"
     inkscape:document-units="mm"
     inkscape:zoom="1.0544998"
     inkscape:cx="246.08825"
     inkscape:cy="195.82745"
     inkscape:window-width="1920"
     inkscape:window-height="1017"
     inkscape:window-x="1912"
     inkscape:window-y="-8"
     inkscape:window-maximized="1"
     inkscape:current-layer="layer1" /><defs
     id="defs1" /><g
     inkscape:label="Layer 1"
     inkscape:groupmode="layer"
     id="layer1"
     transform="translate(-35.002201,-55.372631)"><path
       style="fill:#000000"
       d="m 41.629338,166.09746 c -0.01311,-0.0222 -0.04163,-10.9118 -0.06338,-24.1991 -0.02175,-13.2873 -0.05769,-35.23108 -0.07988,-48.763943 l -0.04035,-24.605211 1.53439,0.04037 c 0.843914,0.0222 1.544094,0.05008 1.555955,0.06194 0.01186,0.01186 0.02989,8.37725 0.04007,18.589753 0.01018,10.212502 0.02631,20.018774 0.03585,21.791724 l 0.01735,3.22354 4.407445,-0.0423 c 2.424095,-0.0233 8.942053,-0.0495 14.48435,-0.0584 13.980873,-0.0223 16.827139,-0.0408 16.827139,-0.10943 0,-0.0324 -1.310804,-2.69883 -2.912899,-5.92551 -1.602094,-3.22668 -3.424046,-6.898598 -4.048781,-8.159826 -0.624736,-1.261228 -1.154671,-2.307676 -1.177634,-2.32544 -0.08275,-0.06401 -0.586209,-1.084459 -1.455918,-2.950963 l -0.276417,-0.593225 0.906378,-1.79681 c 2.432612,-4.822424 7.956263,-15.906595 8.031561,-16.116729 0.04692,-0.13095 0.399415,-0.879451 0.783315,-1.663335 l 0.698001,-1.425244 19.024115,-0.01615 c 10.463267,-0.0089 19.794417,-0.01615 20.735897,-0.01615 h 1.71178 l 0.35698,0.678253 c 0.19634,0.37304 0.57038,1.085206 0.83121,1.582591 0.26083,0.497386 0.56979,1.078746 0.68657,1.291911 0.11678,0.213165 1.32276,2.509537 2.67995,5.103048 2.85124,5.44855 2.88712,5.517041 4.21278,8.042145 0.55023,1.048063 1.21278,2.31252 1.47233,2.809906 0.25956,0.497386 0.68188,1.300866 0.93848,1.785512 0.2566,0.484645 0.50227,0.9894 0.54592,1.121677 0.24878,0.753818 -0.10205,1.584301 -0.80757,1.911648 -0.33514,0.155499 -0.88916,0.156121 -1.22982,0.0014 -0.31265,-0.142021 -0.70707,-0.578775 -0.94967,-1.051616 -0.21123,-0.411687 -1.03484,-1.98959 -1.57934,-3.025753 -0.21469,-0.408567 -0.93826,-1.789297 -1.60792,-3.068288 -0.66966,-1.278992 -2.60331,-4.970627 -4.297,-8.203634 l -3.07943,-5.878195 h -16.72132 c -9.196722,0 -17.67521,0.008 -18.841084,0.01789 l -2.119771,0.01789 -4.452826,8.943162 c -2.449054,4.918739 -4.452826,8.969464 -4.452826,9.001611 0,0.03215 1.514724,3.106798 3.366054,6.832559 1.851329,3.725763 4.074832,8.205713 4.941116,9.955443 l 1.575063,3.18133 3.537049,-0.001 c 1.945377,-8.2e-4 17.780365,-0.0438 35.188865,-0.0954 17.4085,-0.0517 32.54566,-0.0946 33.63813,-0.0954 l 1.98631,-0.001 V 89.844 67.79427 l 1.04348,-0.03621 c 0.57392,-0.01992 1.25671,-0.02009 1.51733,-3.75e-4 l 0.47384,0.03584 0.0168,5.88507 c 0.0184,6.424884 0.0814,71.764609 0.0814,84.368659 v 7.81606 l -1.56346,0.0173 -1.56346,0.0173 -0.46581,-0.40487 c -0.2562,-0.22267 -0.71536,-0.62083 -1.02037,-0.88481 -1.05302,-0.91135 -6.33915,-5.51235 -7.72465,-6.72346 -0.39081,-0.34161 -1.94594,-1.69368 -3.45587,-3.00458 -1.50992,-1.31091 -3.41387,-2.96708 -4.231,-3.68039 -3.32889,-2.90592 -6.91676,-6.01631 -6.99446,-6.06364 -0.0607,-0.037 -1.34799,2.49173 -4.83541,9.49865 -2.61397,5.25197 -4.7859,9.57155 -4.82652,9.59906 -0.0406,0.0275 -1.09124,0.0421 -2.3347,0.0323 -2.74985,-0.0216 -20.01267,0.0702 -20.96126,0.11147 -0.37304,0.0162 -4.866695,0.0483 -9.985905,0.0713 l -9.307656,0.0419 -0.503812,-0.92865 c -0.277096,-0.51075 -0.574469,-1.05945 -0.660828,-1.21932 -0.08636,-0.15987 -0.246165,-0.49366 -0.355123,-0.74175 -0.108958,-0.24809 -0.859245,-1.78869 -1.667303,-3.42356 -1.218277,-2.46483 -6.377256,-12.86644 -7.269835,-14.65755 -0.13979,-0.28051 -0.271322,-0.51305 -0.292293,-0.51676 -0.02097,-0.004 -0.82034,0.6776 -1.776377,1.51403 -1.853308,1.62143 -6.111157,5.34201 -13.591531,11.87649 -2.54022,2.21901 -4.833472,4.22553 -5.096116,4.45892 -0.262644,0.23339 -0.730851,0.64236 -1.040461,0.90882 -0.309609,0.26646 -0.777816,0.67513 -1.04046,0.90817 -0.262644,0.23304 -1.189701,1.04409 -2.060126,1.80232 -0.870425,0.75824 -1.650335,1.43961 -1.733134,1.51416 -0.14366,0.12935 -0.222726,0.13592 -1.729112,0.14362 -0.868212,0.004 -1.589297,-0.0101 -1.60241,-0.0323 z m 7.761881,-8.06433 c 5.469381,-4.78131 9.861501,-8.62054 16.875225,-14.75095 2.82444,-2.46873 7.213707,-6.30532 9.753927,-8.52575 14.221089,-12.4308 21.462907,-18.75813 21.946335,-19.17498 0.222048,-0.19147 0.403723,-0.37708 0.403723,-0.41246 0,-0.0425 -1.865632,-0.0502 -5.50677,-0.0227 -3.028724,0.0229 -15.099209,0.0598 -26.8233,0.0822 -11.724091,0.0223 -21.339469,0.0539 -21.367506,0.0701 -0.07646,0.0443 -0.02422,46.78596 0.05229,46.78596 0.01744,0 2.117172,-1.82311 4.666076,-4.05134 z M 158.22908,139.55677 c -0.0234,-12.24812 -0.0427,-22.78966 -0.0429,-23.42565 l -3e-4,-1.15633 -16.77869,0.0421 c -24.39458,0.0612 -36.77101,0.11958 -36.77101,0.17345 0,0.0415 0.86361,0.80025 5.29307,4.65009 0.55275,0.48042 1.43814,1.25072 1.96754,1.71179 0.52941,0.46106 1.33122,1.15804 1.78182,1.54885 1.56817,1.36007 6.17477,5.36763 7.23949,6.29806 0.58949,0.51515 1.70763,1.48893 2.48475,2.16395 1.35175,1.17418 3.23769,2.81486 5.74733,4.99994 3.0685,2.67166 5.13272,4.45536 5.42603,4.68866 0.17764,0.1413 0.33203,0.27728 0.34309,0.30219 0.0111,0.0249 0.3308,0.31545 0.71055,0.64566 0.37974,0.3302 1.24273,1.08159 1.91776,1.66974 0.67502,0.58816 1.7796,1.54938 2.45463,2.13606 3.14327,2.7319 4.77401,4.15076 5.48895,4.7758 0.79854,0.69811 6.5185,5.675 7.9798,6.94315 0.45033,0.3908 1.45344,1.26284 2.22913,1.93787 2.16413,1.88325 2.49278,2.16395 2.53366,2.16395 0.0208,0 0.0187,-10.0212 -0.005,-22.26932 z m -54.88479,21.72031 c 0.51514,-0.0168 5.03522,-0.047 10.0446,-0.0671 5.00939,-0.0201 9.18064,-0.0516 9.26946,-0.07 0.13981,-0.029 0.32763,-0.36885 1.39922,-2.53205 0.68074,-1.37422 2.63645,-5.30364 4.34602,-8.73205 1.70956,-3.42841 3.17855,-6.38626 3.26443,-6.57301 l 0.15613,-0.33954 -0.7595,-0.66169 c -1.24577,-1.08535 -3.43439,-2.98999 -6.17775,-5.37618 -1.4211,-1.23608 -3.35412,-2.918 -4.2956,-3.73759 -0.94148,-0.8196 -2.26408,-1.96981 -2.9391,-2.55602 -0.67503,-0.58621 -1.66334,-1.44623 -2.19625,-1.91116 -1.12731,-0.98348 -6.42338,-5.59025 -9.68933,-8.42821 -1.24347,-1.08052 -2.7047,-2.35352 -3.24719,-2.8289 -0.54249,-0.47538 -1.01316,-0.85483 -1.04593,-0.84322 -0.0328,0.0116 -1.855657,1.59079 -4.050853,3.50927 -2.195197,1.91849 -5.285357,4.61818 -6.867024,5.9993 -1.581666,1.38113 -3.079233,2.69094 -3.327926,2.9107 -0.570203,0.50387 -1.775264,1.55741 -5.393727,4.71555 -1.580976,1.37985 -3.179716,2.77698 -3.552755,3.10473 -0.373039,0.32775 -1.535759,1.34512 -2.583822,2.26082 -1.048063,0.9157 -1.914054,1.69978 -1.924425,1.7424 -0.02139,0.0879 0.892921,1.9554 5.424504,11.07981 1.755633,3.53499 3.524879,7.10639 3.931659,7.93645 l 0.739598,1.50919 9.269461,-0.0405 c 5.098203,-0.0223 9.69095,-0.0542 10.2061,-0.071 z"
       id="path1" /></g></svg>
